<?xml version="1.0" encoding="utf-8"?>
<!-- Generator: Adobe Illustrator 15.1.0, SVG Export Plug-In . SVG Version: 6.00 Build 0)  -->
<!DOCTYPE svg PUBLIC "-//W3C//DTD SVG 1.1//EN" "http://www.w3.org/Graphics/SVG/1.1/DTD/svg11.dtd">
<svg version="1.1" id="Layer_1" xmlns="http://www.w3.org/2000/svg" xmlns:xlink="http://www.w3.org/1999/xlink" x="0px" y="0px"
	 width="842px" height="842px" viewBox="0 0 842 842" enable-background="new 0 0 842 842" xml:space="preserve">
<title>panda</title>
<desc>Created with Sketch.</desc>
<g id="Page-1">
	<g id="panda">
		<g id="Group-4" transform="translate(75.000000, 148.000000)">
			<g id="Group-Copy-2">
				
					<ellipse id="Oval" transform="matrix(0.6518 -0.7584 0.7584 0.6518 -56.584 126.3924)" fill="none" cx="109.349" cy="124.816" rx="11.931" ry="8.712"/>
				<path id="Shape" fill="none" d="M166.729,235.059c33.267,0,63.725-9.91,87.231-26.267c28.895-20.108,47.264-49.977,47.264-83.29
					c0-13.892-3.222-27.174-9.038-39.412c-4.322,1.43-8.928,2.231-13.73,2.231l-43.73-43.718c0-4.412,0.669-8.664,1.883-12.678
					c-20.38-10.134-44.303-15.981-69.88-15.981c-28.148,0-54.294,7.093-75.916,19.184c0.679,3.056,1.059,6.217,1.059,9.479
					l-43.73,43.718c-2.603,0-5.137-0.271-7.612-0.706c-5.362,11.812-8.295,24.571-8.295,37.886c0,33.313,18.368,63.181,47.264,83.29
					C103.004,225.148,133.467,235.059,166.729,235.059z M208.264,97.462c11.027-9.475,30.495-4.912,43.483,10.194
					c12.988,15.105,14.578,35.036,3.547,44.511c-11.031,9.475-30.495,4.912-43.482-10.194
					C198.828,126.868,197.238,106.938,208.264,97.462z M166.399,137.506c7.75,0,14.028,3.862,14.028,8.623
					s-6.283,8.623-14.028,8.623c-7.75,0-14.028-3.862-14.028-8.623S158.65,137.506,166.399,137.506z M143.503,159.425
					c1.673,29.827,46.558,29.771,48.226,0c0.312-5.604,9.061-5.622,8.745,0c-2.301,41.057-63.418,41.057-65.719,0
					C134.438,153.794,143.187,153.831,143.503,159.425z M83.541,107.657c12.988-15.106,32.456-19.669,43.483-10.194
					c11.026,9.475,9.44,29.405-3.547,44.511c-12.988,15.106-32.456,19.669-43.483,10.194
					C68.962,142.692,70.553,122.767,83.541,107.657z"/>
				
					<ellipse id="Oval_1_" transform="matrix(0.7584 -0.6518 0.6518 0.7584 -26.7693 177.4216)" fill="none" cx="225.937" cy="124.82" rx="8.71" ry="11.934"/>
				<path id="Shape_1_" fill="none" d="M251.271,329.258c-16.036,13.604-57.823-8.664-35.958-35.38
					c21.865-26.715-0.486-40.235-0.486-40.235h-40.806h-14.578h-40.815c0,0-22.351,13.58-0.486,40.3
					c21.865,26.716-19.922,48.598-35.958,34.995c-6.347-5.384-17.626-14.354-26.059-27.848c-0.962,3.862-1.746,7.898-2.319,11.844
					l58.904,74.232c8.813,0.921,17.717,1.204,26.352,1.396c20.894,0.463,41.929,0.596,62.813-0.201
					c6.668-0.257,13.629-0.563,20.572-1.319l57.076-71.873c-0.563-4.577-1.398-9.08-2.479-13.507
					C268.653,314.89,257.549,323.934,251.271,329.258z"/>
				<ellipse id="Oval_2_" cx="166.399" cy="146.129" rx="14.028" ry="8.623"/>
				<path id="Shape_2_" d="M200.474,159.425c0.316-5.622-8.433-5.604-8.745,0c-1.668,29.771-46.553,29.827-48.226,0
					c-0.312-5.594-9.061-5.631-8.744,0C137.055,200.485,198.173,200.481,200.474,159.425z"/>
				<path id="Shape_3_" d="M123.476,141.973c12.988-15.105,14.578-35.036,3.547-44.511c-11.031-9.475-30.495-4.912-43.483,10.194
					c-12.988,15.105-14.578,35.036-3.547,44.511C91.02,161.643,110.488,157.079,123.476,141.973z M102.729,119.138
					c4.299-4.999,10.738-6.506,14.386-3.372s3.121,9.727-1.173,14.726c-4.299,4.999-10.738,6.506-14.386,3.372
					S98.435,124.137,102.729,119.138z"/>
				<path id="Shape_4_" d="M255.299,152.167c11.026-9.475,9.44-29.405-3.547-44.511c-12.988-15.106-32.456-19.669-43.482-10.194
					c-11.027,9.475-9.441,29.405,3.547,44.511C224.804,157.079,244.272,161.643,255.299,152.167z M218.172,115.766
					c3.648-3.134,10.092-1.626,14.386,3.372c4.299,4.999,4.821,11.592,1.173,14.726s-10.091,1.626-14.386-3.372
					C215.047,125.493,214.52,118.9,218.172,115.766z"/>
				<path id="Shape_5_" d="M328.625,331.53h-22.781l-22.429-21.603c-0.766-5.067-1.861-8.792-3.231-13.672
					c10.77-20.397,14.06-49.876-11.884-87.748c25.738-21.4,41.672-50.691,41.672-83.166c0-15.156-3.506-29.561-9.821-42.889
					c13.158-7.537,22.039-21.644,22.039-37.886c0-24.146-19.578-43.7-43.729-43.7c-16.65,0-31.118,9.314-38.506,23
					c-21.443-10.579-46.48-16.673-73.221-16.673c-29.056,0-56.099,7.203-78.707,19.532c-6.838-15.225-22.104-25.84-39.88-25.84
					c-24.152,0-43.73,19.573-43.73,43.718c0,18.455,11.457,34.207,27.63,40.621c-5.531,12.577-8.561,26.139-8.561,40.278
					c0,32.475,15.935,61.925,41.672,83.327c-25.683,37.872-22.708,67.121-12.2,87.519c-1.861,6.039-3.313,10.63-4.226,16.829
					L29.196,331.53H6.415c-4.446,0-7.301,6.012-5.238,9.947l22.594,43.805c1.691,3.23,5.05,5.571,8.698,5.544l78.157,0.229
					c1.068,0.123,2.131,0.325,3.19,0.435c25.348,2.621,51.31,1.901,76.75,1.499c11.104-0.179,22.993-0.303,34.601-1.792l77.405-0.06
					c3.648,0.027,7.007-1.983,8.698-5.214l22.594-44.451C335.926,337.537,333.07,331.53,328.625,331.53z M32.235,125.502
					c0-13.31,2.938-26.07,8.295-37.886c2.479,0.436,5.014,0.706,7.612,0.706l43.73-43.718c0-3.258-0.385-6.424-1.059-9.479
					c21.622-12.091,47.768-19.184,75.916-19.184c25.573,0,49.5,5.846,69.88,15.981c-1.214,4.014-1.883,8.265-1.883,12.677
					l43.73,43.718c4.803,0,9.409-0.802,13.73-2.231c5.815,12.238,9.038,25.52,9.038,39.412c0,33.313-18.369,63.181-47.264,83.291
					c-23.506,16.356-53.964,26.267-87.231,26.267c-33.268,0-63.725-9.91-87.231-26.267
					C50.603,188.684,32.235,158.815,32.235,125.502z M222.458,387.047c-6.943,0.756-13.909,1.071-20.573,1.328
					c-20.884,0.802-41.92,0.678-62.813,0.216c-8.634-0.192-17.543-0.444-26.352-1.37l-58.904-74.178
					c0.568-3.944,1.356-7.871,2.319-11.733c8.433,13.488,19.711,22.684,26.059,28.067c16.036,13.604,57.822-8.724,35.958-35.439
					c-21.87-26.715,0.481-40.295,0.481-40.295h40.815h14.578h40.806c0,0,22.351,13.521,0.486,40.235
					c-21.865,26.716,19.922,48.534,35.958,34.936c6.279-5.328,17.383-14.144,25.788-27.375c1.082,4.426,1.916,9.044,2.479,13.621
					L222.458,387.047z"/>
			</g>
			<path id="panda-copy" d="M3.993,406.596h23.234v10.771h0.336c1.01-1.459,2.329-2.945,3.957-4.46
				c1.628-1.515,3.536-2.89,5.725-4.124s4.574-2.244,7.155-3.029c2.582-0.785,5.332-1.179,8.25-1.179
				c6.061,0,11.561,1.038,16.5,3.114c4.939,2.076,9.176,4.993,12.712,8.752s6.257,8.219,8.166,13.381
				c1.908,5.161,2.862,10.827,2.862,16.999c0,5.722-0.87,11.192-2.61,16.409c-1.74,5.218-4.209,9.847-7.408,13.886
				c-3.199,4.039-7.1,7.266-11.702,9.678s-9.821,3.618-15.658,3.618c-5.275,0-10.186-0.813-14.732-2.44s-8.278-4.403-11.196-8.331
				h-0.337v47.126H3.993V406.596z M27.227,447.494c0,6.171,1.768,11.164,5.303,14.979c3.536,3.814,8.502,5.723,14.9,5.723
				s11.365-1.908,14.9-5.723c3.536-3.815,5.303-8.809,5.303-14.979s-1.768-11.164-5.303-14.979s-8.502-5.723-14.9-5.723
				s-11.365,1.907-14.9,5.723S27.227,441.323,27.227,447.494z M159.056,478.126h-0.336c-2.806,4.376-6.538,7.518-11.196,9.426
				c-4.658,1.907-9.569,2.86-14.732,2.86c-3.816,0-7.492-0.532-11.028-1.599c-3.536-1.065-6.65-2.665-9.344-4.797
				s-4.827-4.769-6.398-7.91s-2.357-6.788-2.357-10.94c0-4.712,0.87-8.695,2.609-11.949s4.097-5.947,7.071-8.079
				c2.975-2.132,6.37-3.787,10.186-4.965c3.816-1.179,7.773-2.048,11.87-2.609c4.097-0.561,8.194-0.897,12.291-1.01
				c4.097-0.112,7.885-0.168,11.364-0.168c0-4.488-1.599-8.051-4.798-10.688c-3.199-2.637-6.987-3.955-11.364-3.955
				c-4.153,0-7.941,0.869-11.365,2.608s-6.482,4.124-9.176,7.153l-13.469-13.802c4.714-4.376,10.214-7.657,16.5-9.846
				c6.286-2.188,12.796-3.282,19.53-3.282c7.408,0,13.497,0.926,18.268,2.777s8.586,4.572,11.449,8.163s4.854,7.994,5.977,13.212
				s1.684,11.249,1.684,18.094v41.571h-23.234V478.126z M152.827,452.543c-1.908,0-4.293,0.085-7.155,0.253s-5.612,0.646-8.25,1.431
				s-4.882,1.964-6.734,3.534c-1.852,1.571-2.778,3.759-2.778,6.564c0,3.029,1.291,5.273,3.873,6.732
				c2.582,1.458,5.275,2.188,8.082,2.188c2.469,0,4.854-0.337,7.155-1.01c2.301-0.673,4.35-1.627,6.146-2.861
				s3.227-2.805,4.293-4.713c1.066-1.907,1.599-4.151,1.599-6.732v-5.386H152.827z M198.117,406.596h24.245v11.107h0.337
				c0.786-1.57,1.908-3.142,3.367-4.712c1.459-1.571,3.199-2.974,5.219-4.208s4.321-2.244,6.903-3.029s5.388-1.179,8.418-1.179
				c6.398,0,11.561,0.982,15.489,2.946c3.929,1.963,6.987,4.684,9.176,8.162c2.189,3.479,3.676,7.574,4.462,12.287
				c0.786,4.712,1.178,9.817,1.178,15.315v45.106h-25.254v-40.057c0-2.356-0.084-4.797-0.252-7.321
				c-0.168-2.525-0.674-4.854-1.516-6.985s-2.132-3.871-3.872-5.218c-1.74-1.346-4.237-2.02-7.492-2.02
				c-3.255,0-5.893,0.589-7.913,1.768c-2.021,1.178-3.564,2.749-4.63,4.713c-1.066,1.963-1.768,4.18-2.104,6.647
				c-0.336,2.469-0.505,5.05-0.505,7.742v40.73h-25.255V406.596z M380.624,488.393H357.39v-10.771h-0.337
				c-1.01,1.459-2.329,2.945-3.956,4.46c-1.628,1.515-3.536,2.89-5.725,4.124s-4.603,2.244-7.24,3.029s-5.359,1.178-8.165,1.178
				c-6.062,0-11.561-1.037-16.5-3.113c-4.938-2.076-9.176-4.993-12.711-8.752s-6.258-8.219-8.166-13.381
				c-1.908-5.161-2.862-10.827-2.862-16.999c0-5.722,0.87-11.192,2.609-16.409c1.74-5.218,4.209-9.847,7.408-13.886
				c3.199-4.04,7.1-7.266,11.701-9.678c4.602-2.412,9.821-3.619,15.658-3.619c5.275,0,10.186,0.813,14.731,2.44
				s8.278,4.404,11.196,8.332h0.337v-54.195h25.255V488.393z M357.39,447.494c0-6.171-1.768-11.164-5.304-14.979
				c-3.535-3.815-8.502-5.723-14.9-5.723c-6.397,0-11.364,1.907-14.9,5.723c-3.535,3.815-5.303,8.809-5.303,14.979
				s1.768,11.164,5.303,14.979c3.536,3.814,8.503,5.723,14.9,5.723c6.398,0,11.365-1.908,14.9-5.723
				C355.622,458.658,357.39,453.665,357.39,447.494z M452.179,478.126h-0.337c-2.806,4.376-6.538,7.518-11.196,9.426
				c-4.658,1.907-9.568,2.86-14.731,2.86c-3.816,0-7.492-0.532-11.028-1.599c-3.535-1.065-6.65-2.665-9.344-4.797
				c-2.694-2.132-4.827-4.769-6.398-7.91s-2.356-6.788-2.356-10.94c0-4.712,0.869-8.695,2.609-11.949s4.097-5.947,7.071-8.079
				s6.37-3.787,10.187-4.965c3.815-1.179,7.772-2.048,11.869-2.609c4.097-0.561,8.193-0.897,12.291-1.01
				c4.097-0.112,7.885-0.168,11.364-0.168c0-4.488-1.6-8.051-4.798-10.688c-3.199-2.637-6.987-3.955-11.365-3.955
				c-4.153,0-7.941,0.869-11.364,2.608c-3.424,1.739-6.482,4.124-9.176,7.153l-13.47-13.802c4.715-4.376,10.215-7.657,16.5-9.846
				c6.285-2.188,12.796-3.282,19.53-3.282c7.408,0,13.497,0.926,18.268,2.777s8.587,4.572,11.448,8.163
				c2.862,3.591,4.855,7.994,5.978,13.212s1.684,11.249,1.684,18.094v41.571h-23.234V478.126z M445.949,452.543
				c-1.908,0-4.293,0.085-7.155,0.253s-5.612,0.646-8.25,1.431s-4.883,1.964-6.734,3.534c-1.853,1.571-2.778,3.759-2.778,6.564
				c0,3.029,1.291,5.273,3.872,6.732c2.582,1.458,5.275,2.188,8.082,2.188c2.47,0,4.854-0.337,7.155-1.01s4.35-1.627,6.146-2.861
				s3.227-2.805,4.293-4.713c1.066-1.907,1.6-4.151,1.6-6.732v-5.386H445.949z"/>
		</g>
	</g>
</g>
</svg>
